<svg width="20" height="20" viewBox="0 0 20 20" fill="none" xmlns="http://www.w3.org/2000/svg">
<g id="Frame">
<g id="Group">
<path id="Vector" d="M7.05885 6.44531V4.6875H5.8824V6.44531C5.8824 6.76895 5.61905 7.03125 5.29401 7.03125H3.52936V8.20312H5.29401C5.61901 8.20312 5.8824 8.46543 5.8824 8.78906V10.5469H7.05885V8.78906C7.05885 8.46543 7.32221 8.20312 7.64709 8.20312H9.41174V7.03125H7.64709C7.32221 7.03125 7.05885 6.76895 7.05885 6.44531Z" fill="#9B9B9B"/>
<path id="Vector_2" d="M17.8432 0H2.15684C0.967578 0 0 0.96375 0 2.14844V13.0859C0 14.2706 0.967578 15.2344 2.15684 15.2344H17.8432C19.0324 15.2344 20 14.2706 20 13.0859V2.14844C20 0.96375 19.0324 0 17.8432 0ZM10.5883 8.78906C10.5883 9.1127 10.3249 9.375 10 9.375H8.23535V11.1328C8.23535 11.4564 7.97199 11.7188 7.64715 11.7188H5.29414C4.9693 11.7188 4.70594 11.4564 4.70594 11.1328V9.375H2.94109C2.61625 9.375 2.35285 9.1127 2.35285 8.78906V6.44531C2.35285 6.12168 2.61625 5.85938 2.94109 5.85938H4.70578V4.10156C4.70578 3.77793 4.96914 3.51562 5.29398 3.51562H7.64707C7.97191 3.51562 8.23527 3.77793 8.23527 4.10156V5.85938H10C10.3248 5.85938 10.5882 6.12168 10.5882 6.44531L10.5883 8.78906ZM15.8824 11.7188H12.3529C12.0281 11.7188 11.7647 11.4564 11.7647 11.1328C11.7647 10.8092 12.0281 10.5469 12.3529 10.5469H15.8825C16.2073 10.5469 16.4707 10.8092 16.4707 11.1328C16.4707 11.4564 16.2073 11.7188 15.8825 11.7188H15.8824ZM17.0589 9.375H12.3529C12.028 9.375 11.7647 9.1127 11.7647 8.78906C11.7647 8.46543 12.028 8.20312 12.3529 8.20312H17.0589C17.3837 8.20312 17.6471 8.46543 17.6471 8.78906C17.6471 9.1127 17.3837 9.375 17.0589 9.375H17.0589ZM17.0589 7.03125H12.3529C12.028 7.03125 11.7647 6.76895 11.7647 6.44531C11.7647 6.12168 12.028 5.85938 12.3529 5.85938H17.0589C17.3837 5.85938 17.6471 6.12168 17.6471 6.44531C17.6471 6.76895 17.3837 7.03125 17.0589 7.03125H17.0589ZM17.0589 4.6875H12.3529C12.028 4.6875 11.7647 4.4252 11.7647 4.10156C11.7647 3.77793 12.028 3.51562 12.3529 3.51562H17.0589C17.3837 3.51562 17.6471 3.77793 17.6471 4.10156C17.6471 4.4252 17.3837 4.6875 17.0589 4.6875H17.0589Z" fill="#9B9B9B"/>
</g>
</g>
</svg>
